<svg width="82" height="79" viewBox="0 0 82 79" fill="none" xmlns="http://www.w3.org/2000/svg">
<path fill-rule="evenodd" clip-rule="evenodd" d="M37.9289 3.71999C45.507 3.9569 53.2861 -0.702384 60.0914 2.63881C67.258 6.15738 70.5615 14.2096 73.9825 21.4212C77.9035 29.6867 84.2011 38.5433 81.2274 47.1946C78.2561 55.839 68.1102 59.5239 59.6738 63.0494C52.7823 65.9292 45.3971 65.1523 37.9289 65.2884C30.2848 65.4277 22.3186 67.5 15.6003 63.8524C8.4545 59.9728 3.12602 52.9775 0.869965 45.168C-1.34619 37.4965 1.09185 29.5623 3.49451 21.9472C5.91856 14.2643 7.61366 4.9908 14.7358 1.22084C21.78 -2.50788 29.9619 3.47091 37.9289 3.71999Z" fill="#E6F5FF"/>
<path d="M65.5856 34.6586C65.3884 34.6586 65.1911 34.56 65.0267 34.3956C64.6979 34.0668 64.7308 33.5408 65.0596 33.212L67.7227 30.6475C68.0515 30.3187 68.5775 30.3516 68.9063 30.6804C69.2351 31.0092 69.2022 31.5352 68.8734 31.864L66.2103 34.4285C66.0131 34.5929 65.7829 34.6586 65.5856 34.6586Z" fill="#FF6600"/>
<path d="M63.8431 33.3106C63.3829 33.2777 63.0541 32.9161 63.0541 32.4558L63.087 30.2858C63.087 29.8255 63.4815 29.4639 63.9418 29.4639C64.4021 29.4639 64.7637 29.8584 64.7637 30.3187L64.7309 32.4886C64.7309 32.9489 64.3363 33.3106 63.876 33.3106C63.8431 33.3106 63.8431 33.3106 63.8431 33.3106Z" fill="#FF6600"/>
<path d="M66.868 36.4341C66.4406 36.4012 66.0789 36.0396 66.0789 35.5793C66.0789 35.119 66.4735 34.7573 66.9337 34.7573L69.1037 34.7902C69.564 34.7902 69.9256 35.1847 69.9256 35.645C69.9256 36.1053 69.5311 36.467 69.0708 36.467L66.9009 36.4341C66.868 36.4341 66.868 36.4341 66.868 36.4341Z" fill="#FF6600"/>
<path d="M55.229 45.6397C53.6179 45.6397 52.3028 44.3246 52.3028 42.7136V27.2281C52.3028 20.9484 47.2067 15.8523 40.927 15.8523H37.9351C31.6555 15.8523 26.5594 20.9484 26.5594 27.2281V42.7136C26.5594 44.3246 25.2443 45.6397 23.6332 45.6397C22.0222 45.6397 20.7071 44.3246 20.7071 42.7136V27.2281C20.7071 17.7263 28.4334 10 37.9351 10H40.927C50.4288 10 58.1551 17.7263 58.1551 27.2281V42.7136C58.1551 44.3246 56.84 45.6397 55.229 45.6397Z" fill="#07254F"/>
<path d="M64.8952 73.3559C64.8952 76.1177 62.6595 78.3534 59.8977 78.3534H18.9975C16.2358 78.3534 14.0001 76.1177 14.0001 73.3559V39.0971C14.0001 36.3353 16.2358 34.0996 18.9975 34.0996H59.8648C62.6266 34.0996 64.8623 36.3353 64.8623 39.0971V73.3559H64.8952Z" fill="#FF6600"/>
<path d="M58.3524 61.5197C58.3524 62.5718 57.4975 63.4595 56.4126 63.4595H22.4825C21.4304 63.4595 20.5427 62.6046 20.5427 61.5197V50.933C20.5427 49.8809 21.3975 48.9932 22.4825 48.9932H56.4126C57.4647 48.9932 58.3524 49.848 58.3524 50.933V61.5197Z" fill="#07254F"/>
<path d="M27.4143 56.4894L26.954 56.2264L27.4143 55.9634C27.6773 55.799 27.776 55.4702 27.6116 55.2072C27.4472 54.9442 27.1184 54.8455 26.8554 55.0099L26.3951 55.273V54.7469C26.3951 54.451 26.1649 54.188 25.8362 54.188C25.5403 54.188 25.2772 54.4181 25.2772 54.7469V55.273L24.8169 55.0099C24.5539 54.8455 24.2251 54.9442 24.0607 55.2072C23.8964 55.4702 23.995 55.799 24.258 55.9634L24.7183 56.2264L24.258 56.4894C23.995 56.6538 23.8964 56.9826 24.0607 57.2456C24.2251 57.5087 24.5539 57.6073 24.8169 57.4429L25.2772 57.1799V57.7059C25.2772 58.0018 25.5074 58.2649 25.8362 58.2649C26.1321 58.2649 26.3951 58.0347 26.3951 57.7059V57.1799L26.8554 57.4429C27.1184 57.6073 27.4472 57.5087 27.6116 57.2456C27.776 56.9826 27.6773 56.6538 27.4143 56.4894Z" fill="white"/>
<path d="M34.2199 56.4894L33.7596 56.2264L34.2199 55.9634C34.4829 55.799 34.5816 55.4702 34.4172 55.2072C34.2528 54.9442 33.924 54.8455 33.661 55.0099L33.2007 55.273V54.7469C33.2007 54.451 32.9705 54.188 32.6418 54.188C32.3459 54.188 32.0828 54.4181 32.0828 54.7469V55.273L31.6225 55.0099C31.3595 54.8455 31.0307 54.9442 30.8663 55.2072C30.702 55.4702 30.8006 55.799 31.0636 55.9634L31.5239 56.2264L31.0636 56.4894C30.8006 56.6538 30.702 56.9826 30.8663 57.2456C31.0307 57.5087 31.3595 57.6073 31.6225 57.4429L32.0828 57.1799V57.7059C32.0828 58.0018 32.313 58.2649 32.6418 58.2649C32.9377 58.2649 33.2007 58.0347 33.2007 57.7059V57.1799L33.661 57.4429C33.924 57.6073 34.2528 57.5087 34.4172 57.2456C34.5487 56.9826 34.4829 56.6538 34.2199 56.4894Z" fill="white"/>
<path d="M40.9929 56.4894L40.5326 56.2264L40.9929 55.9634C41.2559 55.799 41.3545 55.4702 41.1901 55.2072C41.0257 54.9442 40.6969 54.8455 40.4339 55.0099L39.9736 55.273V54.7469C39.9736 54.451 39.7435 54.188 39.4147 54.188C39.1188 54.188 38.8558 54.4181 38.8558 54.7469V55.273L38.3955 55.0099C38.1325 54.8455 37.8037 54.9442 37.6393 55.2072C37.4749 55.4702 37.5735 55.799 37.8366 55.9634L38.2969 56.2264L37.8366 56.4894C37.5735 56.6538 37.4749 56.9826 37.6393 57.2456C37.8037 57.5087 38.1325 57.6073 38.3955 57.4429L38.8558 57.1799V57.7059C38.8558 58.0018 39.0859 58.2649 39.4147 58.2649C39.7106 58.2649 39.9736 58.0347 39.9736 57.7059V57.1799L40.4339 57.4429C40.6969 57.6073 41.0257 57.5087 41.1901 57.2456C41.3545 56.9826 41.2559 56.6538 40.9929 56.4894Z" fill="white"/>
<path d="M47.7985 56.4894L47.3383 56.2264L47.7985 55.9634C48.0616 55.799 48.1602 55.4702 47.9958 55.2072C47.8314 54.9442 47.5026 54.8455 47.2396 55.0099L46.7793 55.273V54.7469C46.7793 54.451 46.5492 54.188 46.2204 54.188C45.9245 54.188 45.6615 54.4181 45.6615 54.7469V55.273L45.2012 55.0099C44.9382 54.8455 44.6094 54.9442 44.445 55.2072C44.2806 55.4702 44.3792 55.799 44.6423 55.9634L45.1026 56.2264L44.6423 56.4894C44.3792 56.6538 44.2806 56.9826 44.445 57.2456C44.6094 57.5087 44.9382 57.6073 45.2012 57.4429L45.6615 57.1799V57.7059C45.6615 58.0018 45.8916 58.2649 46.2204 58.2649C46.5163 58.2649 46.7793 58.0347 46.7793 57.7059V57.1799L47.2396 57.4429C47.5026 57.6073 47.8314 57.5087 47.9958 57.2456C48.1602 56.9826 48.0616 56.6538 47.7985 56.4894Z" fill="white"/>
<path d="M54.5715 56.4894L54.1112 56.2264L54.5715 55.9634C54.8345 55.799 54.9331 55.4702 54.7688 55.2072C54.6044 54.9442 54.2756 54.8455 54.0126 55.0099L53.5523 55.273V54.7469C53.5523 54.451 53.3221 54.188 52.9933 54.188C52.6974 54.188 52.4344 54.4181 52.4344 54.7469V55.273L51.9741 55.0099C51.7111 54.8455 51.3823 54.9442 51.2179 55.2072C51.0536 55.4702 51.1522 55.799 51.4152 55.9634L51.8755 56.2264L51.4152 56.4894C51.1522 56.6538 51.0536 56.9826 51.2179 57.2456C51.3823 57.5087 51.7111 57.6073 51.9741 57.4429L52.4344 57.1799V57.7059C52.4344 58.0018 52.6646 58.2649 52.9933 58.2649C53.2893 58.2649 53.5523 58.0347 53.5523 57.7059V57.1799L54.0126 57.4429C54.2756 57.6073 54.6044 57.5087 54.7688 57.2456C54.9331 56.9826 54.8345 56.6538 54.5715 56.4894Z" fill="white"/>
</svg>
